<?xml version="1.0" encoding="iso-8859-1"?>
<!-- Generator: Adobe Illustrator 16.0.0, SVG Export Plug-In . SVG Version: 6.00 Build 0)  -->
<!DOCTYPE svg PUBLIC "-//W3C//DTD SVG 1.1//EN" "http://www.w3.org/Graphics/SVG/1.1/DTD/svg11.dtd">
<svg xmlns="http://www.w3.org/2000/svg" xmlns:xlink="http://www.w3.org/1999/xlink" version="1.1" id="Capa_1" x="0px" y="0px" width="512px" height="512px" viewBox="0 0 60.837 60.837" style="enable-background:new 0 0 60.837 60.837;" xml:space="preserve">
<g>
	<path d="M50.299,35.305c0.292-3.048,0.173-7.379-2.225-12.82l-9.594-21.76l-1.031,15.54c-0.232-0.611-0.444-1.226-0.726-1.819   L30.015,0.181l-12.617,13.48C13,18.359,10.807,25.012,9.779,30.034c-1.25,0.386-5.41-5.193-5.41-5.193s-3.648,4.167-4.209,9.635   c-0.711,6.941,0.974,12.358,4.41,16.057c1.632,1.756,3.685,3.02,5.822,3.665c0.176,1.187,0.601,2.124,0.984,2.74   c0.859,1.391,2.947,3.718,7.25,3.718c2.305,0,4.65-0.661,6.72-1.245c0.642-0.183,1.585-0.45,2.015-0.532   c0.455,0.034,1.439,0.181,2.113,0.281c1.72,0.255,3.667,0.543,5.499,0.543c2.816,0,4.979-0.776,6.505-2.264   c0.413,0.058,0.826,0.128,1.255,0.128c5.306,0,11.608-6.271,13.483-13.417l4.619-17.587L50.299,35.305z M36.184,38.785   c0.723-4.215,5.9-4.215,6.549-13.944c3.234,7.338,1.218,11.804,1.218,13.944c0,2.145-1.738,3.883-3.88,3.883   C37.924,42.668,35.831,40.897,36.184,38.785z M31.441,16.931c3.452,7.337,2.445,17.409,2.445,19.551   c0,2.146-1.737,3.885-3.882,3.885c-2.146,0-3.884-1.738-3.884-3.885C26.121,30.884,31.729,25.848,31.441,16.931z M21.661,17.65   c-2.013,7.05,0.92,16.692,0.92,18.832c0,2.146-1.743,3.885-3.887,3.885c-2.142,0-3.88-1.738-3.88-3.885   C14.812,34.34,16.139,23.548,21.661,17.65z M5.983,34.903c0.159-2.14,2.445,6.797,7.533,6.179c2.132-0.258,3.884,1.745,3.884,3.888   c0,2.146-1.737,3.884-3.884,3.884C11.369,48.854,5.119,46.705,5.983,34.903z M37.627,53.033c-1.151,1.87-7.913,0-10.391,0   c-2.481,0-9.312,3.385-10.896,0.83c-1.584-2.558,6.83-9.894,10.896-10.109C31.298,43.539,38.777,51.162,37.627,53.033z    M42.733,51.729c-1.866,0-3.381-1.515-3.381-3.379c0-1.868,1.515-3.38,3.381-3.38c1.863,0,4.527,0.439,7.835-2.302   C49.131,48.143,44.596,51.729,42.733,51.729z" fill="#ff9924"/>
</g>
<g>
</g>
<g>
</g>
<g>
</g>
<g>
</g>
<g>
</g>
<g>
</g>
<g>
</g>
<g>
</g>
<g>
</g>
<g>
</g>
<g>
</g>
<g>
</g>
<g>
</g>
<g>
</g>
<g>
</g>
</svg>
